<?xml version="1.0" encoding="UTF-8"?>
<svg version="1.1" xmlns="http://www.w3.org/2000/svg" width="1248" height="832">
<path d="M0 0 C411.84 0 823.68 0 1248 0 C1248 274.56 1248 549.12 1248 832 C836.16 832 424.32 832 0 832 C0 557.44 0 282.88 0 0 Z " fill="#F5F6F6" transform="translate(0,0)" opacity="0"/>
<path d="M0 0 C4.39437231 3.75280775 8.25252101 7.7262057 10.48828125 13.125 C10.48828125 14.445 10.48828125 15.765 10.48828125 17.125 C11.14828125 17.125 11.80828125 17.125 12.48828125 17.125 C15.91168591 44.67923264 10.6217072 65.90271793 -6.0625 88.08203125 C-11.40815811 94.72360648 -17.19592872 100.2285003 -25.9609375 101.47265625 C-30.42083651 101.73265036 -33.52670434 101.63235546 -37.07421875 98.75 C-39.81974236 95.79328226 -40.39661056 94.94720133 -40.94921875 91 C-40.34177735 85.61980479 -37.94576356 83.17862295 -34.51171875 79.125 C-23.06647398 65.48477679 -12.82578352 50.97031934 -13.2578125 32.421875 C-13.7339509 28.11465381 -15.32010273 25.23973757 -18.44921875 22.3125 C-25.39539138 18.31318849 -35.53380563 19.07266513 -43.0703125 21.06640625 C-46.30405353 22.28143969 -49.40205125 23.62206324 -52.51171875 25.125 C-53.72794922 25.70121094 -53.72794922 25.70121094 -54.96875 26.2890625 C-61.09152113 29.44159264 -66.28794371 33.67392512 -71.51171875 38.125 C-72.33800781 38.82753906 -73.16429687 39.53007812 -74.015625 40.25390625 C-85.82222708 50.58237349 -95.21131727 62.57936587 -104.51171875 75.125 C-105.17042969 76.00929688 -105.82914063 76.89359375 -106.5078125 77.8046875 C-115.07582147 89.68072871 -122.45638935 102.41329778 -128.80859375 115.59375 C-130.19712483 118.4727227 -131.64774753 121.29783945 -133.13671875 124.125 C-138.00640179 133.94607218 -141.44887738 144.30248667 -144.26171875 154.875 C-144.46023438 155.61806396 -144.65875 156.36112793 -144.86328125 157.12670898 C-147.64118297 168.00167099 -148.85588609 178.52709433 -148.82421875 189.75 C-148.84033203 190.89984375 -148.85644531 192.0496875 -148.87304688 193.234375 C-148.88017482 205.75104463 -145.63105826 217.87516343 -136.59375 227.078125 C-134.63725015 228.62457997 -132.67719784 229.8910855 -130.51171875 231.125 C-129.86976563 231.53492188 -129.2278125 231.94484375 -128.56640625 232.3671875 C-118.44564466 237.94707507 -103.28508277 235.72593922 -92.51171875 233.125 C-77.50435005 228.44380242 -65.54845526 218.94683482 -54.51171875 208.125 C-53.19880859 206.87009766 -53.19880859 206.87009766 -51.859375 205.58984375 C-45.90842925 199.80394734 -40.60462699 193.67302488 -35.51171875 187.125 C-35.07182617 186.5774707 -34.63193359 186.02994141 -34.17871094 185.46582031 C-26.80075543 176.25759414 -21.8896186 166.9710201 -17.35986328 156.109375 C-10.81184355 140.78919527 -0.11689766 127.86899684 11.48828125 116.125 C12.31070313 115.27808594 13.133125 114.43117188 13.98046875 113.55859375 C23.37232132 104.4592743 35.92664216 97.9490974 49.17578125 97.6875 C58.23569915 97.84171137 65.99126446 100.35220971 72.61328125 106.6875 C76.9906054 111.40237899 77.94482427 115.30881942 77.8046875 121.65234375 C77.18469788 126.49744778 74.72945677 129.16308897 70.98828125 132.0625 C68.48828125 133.125 68.48828125 133.125 66.42578125 133.125 C63.63104594 131.68255597 62.24265259 129.6939009 60.48828125 127.125 C60.48828125 126.465 60.48828125 125.805 60.48828125 125.125 C55.87861811 122.48184453 51.68502571 122.51083929 46.48828125 123.125 C27.18936053 128.85663435 11.70991874 151.77900276 2.55078125 168.625 C-3.7605661 180.773519 -7.02671488 193.38433739 -5.51171875 207.125 C-3.85612533 210.35997283 -3.85612533 210.35997283 -0.94921875 210.6875 C10.17088276 208.86784703 18.32992056 197.70196024 24.67578125 189.1875 C25.80965359 187.67429762 26.94377387 186.161281 28.078125 184.6484375 C28.64515137 183.89014648 29.21217773 183.13185547 29.79638672 182.35058594 C31.38836037 180.25643994 33.02180063 178.20620054 34.6796875 176.1640625 C41.047904 168.20882683 45.65238795 160.34413973 49.45996094 150.86206055 C51.43605455 146.01460772 53.20692563 142.39820766 57.48828125 139.125 C61.47958718 138.10661608 65.6512436 138.29870194 69.43359375 140 C71.27680508 141.21099875 72.92705975 142.5637785 74.48828125 144.125 C75.1839224 150.46005368 74.01645151 155.69746667 71.73828125 161.5625 C71.46387207 162.3047583 71.18946289 163.0470166 70.90673828 163.81176758 C69.46707234 167.67691177 67.94068917 171.50148247 66.36328125 175.3125 C61.74045774 186.8112879 59.86845439 196.83176727 60.48828125 209.125 C67.08034472 208.26739174 71.15714729 207.50965303 75.48828125 202.125 C76.55818218 200.9501459 77.62853927 199.77570713 78.69921875 198.6015625 C82.7971596 193.92474424 86.12439496 188.88336038 89.42578125 183.625 C90.34037109 182.17468384 90.34037109 182.17468384 91.2734375 180.69506836 C103.8600998 160.47774204 113.26035012 139.54227443 114.66015625 115.5546875 C115.24692365 107.1594001 116.4236415 99.38527329 122.48828125 93.125 C125.35436254 91.69195936 127.30128908 91.81855845 130.48828125 92.125 C134.14610305 94.16493908 136.15774299 95.62919262 138.48828125 99.125 C138.66772461 101.16210938 138.66772461 101.16210938 138.578125 103.46875 C138.55814453 104.30277344 138.53816406 105.13679688 138.51757812 105.99609375 C138.4563753 107.74883849 138.39127017 109.50145132 138.32226562 111.25390625 C138.29422852 112.50494141 138.29422852 112.50494141 138.265625 113.78125 C138.23718506 114.54244141 138.20874512 115.30363281 138.17944336 116.08789062 C138.57903201 118.72359631 139.37870352 119.53820568 141.48828125 121.125 C144.05879971 121.74885617 146.50912591 122.23031331 149.11328125 122.625 C166.16120025 125.5358537 166.16120025 125.5358537 170.48828125 131.125 C172.72553141 135.59950032 172.13420819 141.13097171 170.63037109 145.7734375 C169.39553631 148.60540832 168.06188267 151.36393237 166.67578125 154.125 C165.66700842 156.22485383 164.66193155 158.32648637 163.66015625 160.4296875 C163.13873047 161.51733398 162.61730469 162.60498047 162.08007812 163.72558594 C159.37536177 169.50173173 156.89827724 175.37153584 154.42578125 181.25 C153.96131592 182.34570312 153.49685059 183.44140625 153.01831055 184.5703125 C148.73068532 194.16712893 148.73068532 194.16712893 147.30078125 204.4375 C147.31044922 205.73107422 147.31044922 205.73107422 147.3203125 207.05078125 C147.26205675 209.114684 147.26205675 209.114684 148.48828125 210.125 C152.58447331 210.84183361 155.20953434 210.01600353 158.67578125 207.9375 C168.81366853 200.6742821 176.15556126 189.25308056 183.14208984 179.07617188 C184.60162858 176.96071421 186.0865423 174.86414598 187.5703125 172.765625 C193.54485055 164.20270322 198.28960294 156.12636227 201.74023438 146.22705078 C202.58918092 143.84146666 203.49517206 141.48212751 204.41015625 139.12109375 C207.9284619 130.04011786 211.33800097 120.92965989 214.49804688 111.71728516 C215.98121059 107.42328697 217.65819974 103.27890935 219.48828125 99.125 C218.55113281 99.28484375 217.61398437 99.4446875 216.6484375 99.609375 C211.74854376 100.30460521 206.86768375 100.34717789 201.92578125 100.375 C200.54616211 100.4059375 200.54616211 100.4059375 199.13867188 100.4375 C193.84292763 100.46795719 190.02075543 100.18961129 185.48828125 97.125 C182.99669085 93.3876144 183.0303484 91.55168417 183.48828125 87.125 C185.88265225 82.44509305 189.50300701 80.70628722 194.26171875 78.97265625 C205.66277093 75.97746457 217.77329836 75.7859812 229.48828125 76.125 C229.61074219 75.23425781 229.73320313 74.34351563 229.859375 73.42578125 C230.44223008 70.36669712 231.21989702 68.10510115 232.55078125 65.3125 C234.20882506 61.82869118 235.84006008 58.34304101 237.38671875 54.80859375 C238.06608869 53.28892049 238.74577607 51.76938911 239.42578125 50.25 C239.73717041 49.52449951 240.04855957 48.79899902 240.36938477 48.05151367 C242.63549166 43.07323402 244.89072794 40.16266915 249.48828125 37.125 C254.06341595 36.07925493 258.24261962 36.55407175 262.48828125 38.5 C264.48828125 40.125 264.48828125 40.125 266.48828125 42.125 C266.37123822 48.44532377 264.27552678 53.40112617 261.765625 59.1484375 C258.59073976 66.40076321 258.59073976 66.40076321 257.48828125 74.125 C258.52235107 74.10405273 259.5564209 74.08310547 260.62182617 74.06152344 C264.47015453 73.98894712 268.31842279 73.94313683 272.16723633 73.90527344 C273.83075138 73.88519793 275.49419621 73.85793124 277.1574707 73.82324219 C279.55307365 73.77454234 281.94774117 73.75199144 284.34375 73.734375 C285.08352585 73.71372986 285.8233017 73.69308472 286.585495 73.67181396 C290.27716625 73.67022141 292.30119825 74.00440129 295.43481445 76.02441406 C297.85175122 78.4968102 298.41144339 79.44882682 298.80078125 82.875 C298.40581276 86.98267229 297.08251805 88.95426614 294.48828125 92.125 C289.29396246 96.02073909 280.57013588 95.29149724 274.26953125 95.44140625 C273.15451233 95.4725779 273.15451233 95.4725779 272.01696777 95.50437927 C269.67415377 95.56905128 267.33124101 95.62837092 264.98828125 95.6875 C263.38670909 95.73076384 261.78514643 95.77438044 260.18359375 95.81835938 C256.28525392 95.92464636 252.38681615 96.02613794 248.48828125 96.125 C246.5852729 100.18417543 244.69225481 104.24793841 242.80078125 108.3125 C242.27033203 109.44365234 241.73988281 110.57480469 241.19335938 111.74023438 C238.06990169 118.46620768 235.21681184 125.22867571 232.60766602 132.17016602 C231.65069998 134.69626415 230.6499178 137.19058203 229.6015625 139.6796875 C225.22780832 150.12536859 221.52689789 160.72932786 218.05078125 171.5 C217.82959625 172.18157166 217.60841125 172.86314331 217.38052368 173.56536865 C216.74541786 175.52879978 216.11732214 177.49431139 215.4921875 179.4609375 C215.12939697 180.60095215 214.76660645 181.7409668 214.39282227 182.91552734 C212.73822202 188.78634376 212.30632194 194.3245674 212.30078125 200.375 C212.28853516 201.09429687 212.27628906 201.81359375 212.26367188 202.5546875 C212.25845201 204.41295986 212.36563612 206.27077197 212.48828125 208.125 C213.14828125 208.785 213.80828125 209.445 214.48828125 210.125 C224.24594668 210.125 230.8154901 203.08342265 237.36328125 196.625 C243.08391082 190.86502953 248.19883554 184.75622599 253.0859375 178.28125 C259.78898055 169.47465035 259.78898055 169.47465035 262.48828125 168.125 C266.03059186 167.73996624 267.85085467 167.70564041 270.86328125 169.6875 C273.22642198 173.23221109 273.16047459 174.89018195 272.48828125 179.125 C268.89049572 188.03514072 262.70101091 194.94270798 256.48828125 202.125 C254.96250628 204.01685856 253.44148868 205.91256604 251.92578125 207.8125 C241.98643632 219.90276774 228.58657074 233.65066647 212.19140625 235.49609375 C207.30816099 235.67838684 203.55828481 235.59191064 199.05078125 233.625 C190.02613831 224.82047031 187.15114423 216.55939517 186.48828125 204.125 C185.91980469 204.83785156 185.35132813 205.55070313 184.765625 206.28515625 C176.55993145 216.46350401 168.44729386 224.046735 157.48828125 231.125 C156.76382813 231.60710937 156.039375 232.08921875 155.29296875 232.5859375 C149.67280744 235.90159752 143.86002239 235.83697673 137.48828125 235.125 C131.03978253 233.17828341 126.86614713 227.9262363 123.37890625 222.3515625 C117.14423562 208.88232124 122.97703283 191.27331821 127.48828125 178.125 C129.27780051 173.70758075 131.19551302 169.36176172 133.17944336 165.02880859 C134.06112784 163.10239347 134.93078901 161.17087828 135.79882812 159.23828125 C138.14563255 154.04992063 140.46536499 148.96436454 143.48828125 144.125 C142.31265625 144.16625 141.13703125 144.2075 139.92578125 144.25 C135.76418451 144.26483635 132.42340458 143.43670778 128.48828125 142.125 C128.36582031 142.82109375 128.24335937 143.5171875 128.1171875 144.234375 C122.87379587 168.33443591 108.16799426 192.55926771 92.48828125 211.125 C91.77800781 211.970625 91.06773437 212.81625 90.3359375 213.6875 C81.9907831 223.30862704 71.54090259 233.25942675 58.5625 235.66796875 C53.07883333 235.94859899 48.67180013 235.14130759 44.2109375 231.84375 C36.74802531 224.39776052 36.63383293 215.04897819 36.48828125 205.125 C35.77542969 205.91003906 35.06257812 206.69507813 34.328125 207.50390625 C31.39654651 210.72489666 28.44521115 213.92729152 25.48828125 217.125 C24.52921875 218.16914063 24.52921875 218.16914063 23.55078125 219.234375 C19.04490718 223.95687763 13.99517418 227.63868132 8.48828125 231.125 C7.68261719 231.63675781 6.87695312 232.14851562 6.046875 232.67578125 C-1.03524562 236.71133955 -7.64546289 237.25689352 -15.6171875 235.71875 C-21.55513255 233.72632694 -24.69485978 228.45135459 -27.55078125 223.22265625 C-29.16382608 219.7779764 -29.8562583 216.91493502 -29.51171875 213.125 C-31.98196537 215.49643676 -34.27407963 217.97471686 -36.51171875 220.5625 C-37.11886719 221.25472656 -37.72601562 221.94695312 -38.3515625 222.66015625 C-39.49884567 223.96926236 -40.6445352 225.27984155 -41.77783203 226.60107422 C-57.65876875 245.04253459 -79.98881229 259.97009901 -104.51171875 263.125 C-108.7251877 263.38335578 -112.91645813 263.40580482 -117.13671875 263.375 C-118.2040625 263.38273437 -119.27140625 263.39046875 -120.37109375 263.3984375 C-135.85892449 263.36038386 -147.99890311 258.35571536 -159.3046875 247.48828125 C-172.05891435 233.83110028 -177.95690386 216.47181568 -179.51171875 198.125 C-180.17816406 199.00800781 -180.84460938 199.89101563 -181.53125 200.80078125 C-192.12232945 214.66409086 -206.34850642 232.61416211 -224.51171875 236.125 C-231.62229935 236.59126758 -236.6013272 235.62929041 -242.19921875 230.8125 C-247.44084854 224.72087619 -249.63533757 220.49809801 -249.64453125 212.546875 C-249.64582031 211.46792969 -249.64710938 210.38898438 -249.6484375 209.27734375 C-249.64457031 208.15457031 -249.64070313 207.03179687 -249.63671875 205.875 C-249.64058594 204.76769531 -249.64445312 203.66039062 -249.6484375 202.51953125 C-249.64142932 196.62565447 -249.40709157 190.95202945 -248.51171875 185.125 C-249.27162109 185.78435547 -249.27162109 185.78435547 -250.046875 186.45703125 C-258.75382595 192.34905669 -271.26006677 194.49863461 -281.51171875 193.125 C-283.18815714 192.48330183 -284.85658501 191.81980538 -286.51171875 191.125 C-286.19340088 192.0991687 -286.19340088 192.0991687 -285.86865234 193.09301758 C-283.30436679 201.90427531 -283.05062039 210.23821318 -283.12060547 219.33178711 C-283.13658187 221.79142695 -283.1207377 224.24939651 -283.1015625 226.70898438 C-283.08310771 241.30991818 -285.244133 255.14103599 -289.51171875 269.125 C-289.88296875 270.38054687 -290.25421875 271.63609375 -290.63671875 272.9296875 C-296.31559663 291.87587211 -303.96534263 310.42893144 -317.51171875 325.125 C-318.40503906 326.13820313 -318.40503906 326.13820313 -319.31640625 327.171875 C-324.11119682 332.34229433 -329.36017719 336.55666641 -336.5078125 337.53515625 C-343.35134775 337.73166226 -348.99339005 337.17920874 -354.34765625 332.53125 C-363.25079019 323.3651543 -364.07365461 313.30177864 -363.90771484 301.06420898 C-363.2306973 278.34429658 -357.13099357 255.27081436 -348.40258789 234.30834961 C-347.07986271 231.06660358 -346.02237972 227.77032005 -344.94921875 224.4375 C-343.36747405 219.52631236 -341.59825026 214.83632767 -339.51171875 210.125 C-340.0221875 210.81464844 -340.53265625 211.50429688 -341.05859375 212.21484375 C-348.75187578 222.15881999 -358.91495007 232.23141934 -371.78515625 234.53125 C-377.83992956 234.94454511 -381.90049389 232.93974057 -386.51171875 229.125 C-392.27132532 223.05406335 -394.07115828 217.27303547 -394.01171875 209.125 C-394.00962402 208.26648438 -394.0075293 207.40796875 -394.00537109 206.5234375 C-393.74040283 195.29363731 -391.87020839 182.1419323 -386.51171875 172.125 C-387.99671875 172.8675 -387.99671875 172.8675 -389.51171875 173.625 C-393.85967329 175.27207075 -398.09972071 175.42912967 -402.69921875 175.4375 C-403.38822266 175.44265625 -404.07722656 175.4478125 -404.78710938 175.453125 C-408.78782198 175.39890431 -411.90995378 174.88042332 -415.51171875 173.125 C-415.84171875 174.300625 -416.17171875 175.47625 -416.51171875 176.6875 C-420.35969798 188.15917517 -426.99251761 198.72925646 -434.51171875 208.125 C-434.95531738 208.68074707 -435.39891602 209.23649414 -435.85595703 209.80908203 C-445.87339332 222.24346669 -457.64319757 235.44344106 -474.48046875 237.34765625 C-480.71452576 237.62339339 -485.41290589 235.93095526 -490.19921875 231.8125 C-499.10102481 221.46715782 -500.05391698 212.1328849 -500.51171875 199.125 C-501.11306641 200.14207031 -501.11306641 200.14207031 -501.7265625 201.1796875 C-505.48024576 207.32517348 -509.53784046 212.66856088 -514.46484375 217.91796875 C-516.65300317 220.20522992 -516.65300317 220.20522992 -518.88671875 223.25 C-522.890802 227.63542451 -527.58918853 230.8386517 -532.51171875 234.125 C-533.17171875 234.58648437 -533.83171875 235.04796875 -534.51171875 235.5234375 C-540.55740068 239.19775281 -547.65931576 239.007386 -554.51171875 238.125 C-557.94140625 236.59765625 -557.94140625 236.59765625 -560.51171875 235.125 C-560.51171875 234.465 -560.51171875 233.805 -560.51171875 233.125 C-561.17171875 233.125 -561.83171875 233.125 -562.51171875 233.125 C-563.9140625 231.2890625 -563.9140625 231.2890625 -565.44921875 228.75 C-566.20525391 227.53183594 -566.20525391 227.53183594 -566.9765625 226.2890625 C-570.78773624 218.43397158 -572.02101741 211.05376299 -571.88671875 202.375 C-571.87584229 201.40908936 -571.86496582 200.44317871 -571.85375977 199.44799805 C-571.14391653 167.40326365 -552.15601237 128.41972995 -530.51171875 105.125 C-526.34420866 101.40084204 -523.14693224 100.4824903 -517.69140625 100.73046875 C-514.29304201 101.34558486 -512.12970929 102.94334121 -509.51171875 105.125 C-508.89296875 105.558125 -508.27421875 105.99125 -507.63671875 106.4375 C-506.19956878 108.59322495 -505.85186333 110.42643928 -505.98046875 113.00390625 C-507.21251719 117.92304082 -510.68947266 121.99746509 -513.51171875 126.125 C-529.22251101 150.15752044 -549.96394651 182.1911264 -546.51171875 212.125 C-546.18171875 212.455 -545.85171875 212.785 -545.51171875 213.125 C-536.82393688 212.76389415 -532.15211262 207.06306532 -526.51171875 201.125 C-523.33205291 197.58608018 -520.41063112 193.89594292 -517.51171875 190.125 C-516.49288279 188.83278484 -515.47330205 187.54115667 -514.453125 186.25 C-504.02869348 172.95842315 -494.66391939 159.68474932 -488.1796875 144.03515625 C-483.16383419 132.02641978 -475.66544806 115.33514975 -464.51171875 108.125 C-459.65996477 107.23969432 -455.01359896 107.51198767 -450.44921875 109.375 C-447.49292562 112.04520024 -446.64541427 113.86130258 -446.2265625 117.8203125 C-446.58436435 121.96689279 -448.25056489 124.729364 -450.38671875 128.1875 C-462.72269814 149.22294061 -474.98436363 173.60088092 -474.76171875 198.5 C-474.76945312 199.38816406 -474.7771875 200.27632812 -474.78515625 201.19140625 C-474.78128906 202.46951172 -474.78128906 202.46951172 -474.77734375 203.7734375 C-474.77395996 204.92078369 -474.77395996 204.92078369 -474.77050781 206.09130859 C-474.62539314 208.43682174 -474.62539314 208.43682174 -472.51171875 211.125 C-469.72727298 211.87883338 -469.72727298 211.87883338 -466.51171875 211.125 C-459.92437176 206.7748652 -455.89316535 200.45561776 -451.66894531 193.91357422 C-450.91458861 192.74766341 -450.15129643 191.58747093 -449.37792969 190.43408203 C-439.80459634 176.12398644 -431.83911952 159.8782209 -431.89379883 142.42797852 C-431.81267597 135.38368589 -430.18458124 129.04982203 -428.19921875 122.3125 C-427.90257324 121.29164307 -427.60592773 120.27078613 -427.30029297 119.21899414 C-425.22777931 112.49482625 -423.05740156 105.72206682 -416.51171875 102.125 C-411.60987394 101.37986115 -406.98772963 101.46230124 -402.44921875 103.5 C-398.55155271 106.76901023 -398.55155271 106.76901023 -398.140625 110.44140625 C-398.09985467 111.85635666 -398.07907934 113.27197068 -398.07421875 114.6875 C-398.06950562 115.81140137 -398.06950562 115.81140137 -398.06469727 116.95800781 C-398.21534222 124.22227422 -400.02308605 130.66877769 -402.3203125 137.515625 C-404.22228681 143.27767177 -404.71248005 148.10216112 -404.51171875 154.125 C-403.39652636 155.44414978 -403.39652636 155.44414978 -400.57421875 155.5 C-393.29163689 155.38036827 -386.28009451 150.64676064 -381.08984375 145.8203125 C-375.41396419 139.72295674 -372.26999345 132.58631611 -369.0534668 125.01708984 C-362.38022852 109.32430642 -362.38022852 109.32430642 -357.51171875 106.125 C-352.6881902 105.50260922 -350.53731892 105.60252444 -346.19921875 107.8125 C-342.34875827 111.12568693 -340.71361883 113.34154933 -340.13671875 118.4375 C-340.95121017 126.44666561 -345.16289312 134.00884879 -348.38671875 141.3125 C-351.98059603 149.51615498 -355.40007398 157.72581394 -358.51171875 166.125 C-359.36286609 168.35532126 -360.21708631 170.58447201 -361.07421875 172.8125 C-361.68716797 174.40771484 -361.68716797 174.40771484 -362.3125 176.03515625 C-363.74910195 179.73662904 -365.22341188 183.42188223 -366.71484375 187.1015625 C-368.40356686 191.38959472 -368.61648806 194.70514536 -368.57421875 199.3125 C-368.56519531 200.58480469 -368.55617188 201.85710937 -368.546875 203.16796875 C-368.53527344 204.14378906 -368.52367187 205.11960937 -368.51171875 206.125 C-364.87143649 206.46842285 -363.05415623 206.49472941 -359.984375 204.40234375 C-358.79134766 203.24412109 -358.79134766 203.24412109 -357.57421875 202.0625 C-356.70796875 201.22976563 -355.84171875 200.39703125 -354.94921875 199.5390625 C-354.14484375 198.74242187 -353.34046875 197.94578125 -352.51171875 197.125 C-351.91359375 196.57585937 -351.31546875 196.02671875 -350.69921875 195.4609375 C-346.18989673 191.2334481 -342.45313379 186.40790972 -338.71044922 181.50756836 C-336.56788077 178.7051536 -334.438955 176.04779527 -332.015625 173.4765625 C-325.42279344 166.42790279 -323.35154894 159.23916366 -320.91015625 150.13671875 C-319.3690505 144.41028278 -317.22904735 139.06071753 -314.953125 133.59375 C-313.52204418 130.1498482 -312.19611718 126.67922916 -310.88671875 123.1875 C-309.32807767 119.10227195 -307.62413708 115.23682909 -305.58886719 111.37304688 C-304.32171192 108.72844903 -303.31947969 106.0352113 -302.30078125 103.28515625 C-299.48085303 95.89290111 -296.2488831 88.71919387 -292.88671875 81.5625 C-292.4293483 80.5866243 -292.4293483 80.5866243 -291.96273804 79.59103394 C-265.97031249 24.27208696 -265.97031249 24.27208696 -241.9921875 12.93359375 C-237.98422867 11.62706229 -234.54561565 12.041692 -230.51171875 13.125 C-225.25338176 16.39905888 -222.5176605 20.37883091 -220.51171875 26.125 C-219.89908632 30.05483045 -219.84606464 33.90281847 -219.88671875 37.875 C-219.89292236 38.97030029 -219.89912598 40.06560059 -219.90551758 41.1940918 C-220.78858129 75.47437621 -243.07164461 111.58835774 -263.51171875 138.125 C-264.2284375 139.05699219 -264.94515625 139.98898437 -265.68359375 140.94921875 C-269.07697146 145.216455 -272.61672247 149.2655463 -276.40625 153.18359375 C-277.09235352 153.89652588 -277.77845703 154.60945801 -278.48535156 155.34399414 C-279.85697165 156.75969973 -281.24017075 158.16429579 -282.63574219 159.55639648 C-283.26641602 160.20552002 -283.89708984 160.85464355 -284.546875 161.5234375 C-285.11801025 162.09755371 -285.68914551 162.67166992 -286.27758789 163.26318359 C-287.89967599 165.71027437 -287.884068 167.24522569 -287.51171875 170.125 C-284.62055084 173.01616791 -282.49415884 172.49475224 -278.44921875 172.5625 C-268.4262497 172.5556153 -256.35254428 170.76699079 -248.32421875 164.3125 C-247.36890539 163.26598727 -246.433585 162.20109252 -245.51171875 161.125 C-245.02131104 160.55281738 -244.53090332 159.98063477 -244.02563477 159.39111328 C-240.04246261 154.42325718 -238.18160715 149.94161075 -236.63671875 143.8125 C-233.79765676 133.50135882 -229.86695985 123.87563661 -225.51171875 114.125 C-224.76425625 112.44143585 -224.01685914 110.75784266 -223.26953125 109.07421875 C-222.68377171 107.7577333 -222.09790188 106.44129689 -221.51171875 105.125 C-222.39859375 105.228125 -223.28546875 105.33125 -224.19921875 105.4375 C-227.51171875 105.125 -227.51171875 105.125 -230.38671875 103.1875 C-232.89153614 99.57761611 -233.18463104 97.51419958 -232.94140625 93.21484375 C-232.31443915 90.16550378 -231.04386645 88.86132985 -228.51171875 87.125 C-225.08938903 85.98422343 -222.42498658 86.02684883 -218.82421875 86.0625 C-217.64472656 86.07152344 -216.46523438 86.08054687 -215.25 86.08984375 C-213.89455078 86.10724609 -213.89455078 86.10724609 -212.51171875 86.125 C-212.36863281 84.88556641 -212.36863281 84.88556641 -212.22265625 83.62109375 C-211.39006643 79.5267647 -209.87165184 75.95942476 -208.13671875 72.1875 C-207.79020264 71.42405273 -207.44368652 70.66060547 -207.08666992 69.87402344 C-205.90505251 67.28628388 -204.70906563 64.70549691 -203.51171875 62.125 C-203.05845215 61.13935059 -202.60518555 60.15370117 -202.13818359 59.13818359 C-200.7118245 56.04489235 -199.27051784 52.9590129 -197.82421875 49.875 C-197.37320801 48.89926025 -196.92219727 47.92352051 -196.45751953 46.91821289 C-190.50752021 34.37612015 -190.50752021 34.37612015 -185.47265625 32.2734375 C-184.82554687 32.22445312 -184.1784375 32.17546875 -183.51171875 32.125 C-182.80273438 32.03476562 -182.09375 31.94453125 -181.36328125 31.8515625 C-177.26155978 31.66446643 -174.32525097 31.74804738 -170.94921875 34.25 C-168.51171875 37.125 -168.51171875 37.125 -168.1875 39.84375 C-168.57013941 43.71624528 -169.74935968 46.95690029 -171.26171875 50.5 C-171.53612793 51.16410889 -171.81053711 51.82821777 -172.09326172 52.51245117 C-173.76495247 56.51127272 -175.57468431 60.40156677 -177.578125 64.2421875 C-180.88830085 70.91793962 -183.25237686 78.03888224 -185.51171875 85.125 C-184.73828125 85.10179687 -183.96484375 85.07859375 -183.16796875 85.0546875 C-169.07254961 84.81045994 -169.07254961 84.81045994 -163.01171875 88.75 C-161.24970113 91.53986124 -160.89308919 93.79882739 -161.046875 97.08984375 C-161.87431847 100.71251644 -163.88071347 102.5566377 -166.51171875 105.125 C-169.19384685 106.46606405 -171.39569907 106.33950419 -174.39453125 106.44140625 C-175.56113281 106.48330078 -176.72773437 106.52519531 -177.9296875 106.56835938 C-179.15300781 106.60767578 -180.37632812 106.64699219 -181.63671875 106.6875 C-182.86777344 106.73068359 -184.09882812 106.77386719 -185.3671875 106.81835938 C-188.41524728 106.92468704 -191.46339065 107.02671781 -194.51171875 107.125 C-201.84338127 124.30776955 -201.84338127 124.30776955 -208.32275391 141.82226562 C-210.25010191 147.45709104 -212.36419214 153.00822214 -214.51171875 158.5625 C-217.12329789 165.35322831 -219.63096478 172.16569443 -221.94921875 179.0625 C-222.19607422 179.78945068 -222.44292969 180.51640137 -222.69726562 181.26538086 C-224.82734132 187.71098385 -225.66290607 193.53655388 -225.69921875 200.3125 C-225.71339844 201.52292969 -225.72757813 202.73335937 -225.7421875 203.98046875 C-225.75928538 207.28708002 -225.75928538 207.28708002 -223.51171875 210.125 C-219.23377179 210.89503045 -216.40864965 210.42505835 -212.88671875 208 C-202.68920587 199.62772289 -193.83175571 188.79546393 -186.09375 178.1796875 C-184.82421875 176.5 -184.82421875 176.5 -182.51171875 174.125 C-179.8671875 173.9765625 -179.8671875 173.9765625 -177.51171875 174.125 C-177.34736328 172.36736328 -177.34736328 172.36736328 -177.1796875 170.57421875 C-176.31488838 161.80655809 -175.20432481 153.54380323 -172.51171875 145.125 C-172.18558594 143.97515625 -171.85945313 142.8253125 -171.5234375 141.640625 C-166.42800515 123.93819464 -158.47895052 107.48325926 -149.69018555 91.35205078 C-148.44776214 89.00413565 -147.29504422 86.62275353 -146.140625 84.23046875 C-143.41160886 78.73801931 -140.13346144 73.69842939 -136.69921875 68.625 C-136.07684326 67.70009766 -135.45446777 66.77519531 -134.81323242 65.82226562 C-130.64590676 59.67808286 -126.34157482 53.76780214 -121.51171875 48.125 C-120.27228516 46.61292969 -120.27228516 46.61292969 -119.0078125 45.0703125 C-109.5379429 33.56495928 -99.33354584 23.23980002 -87.51171875 14.125 C-86.23941406 13.12726563 -86.23941406 13.12726563 -84.94140625 12.109375 C-61.61479676 -5.57706921 -26.04148153 -20.0375756 0 0 Z " fill="#0D0D0E" transform="translate(859.51171875,255.875)"/>
<path d="M0 0 C15.06260748 -0.48690389 29.02997847 2.44539583 40.51171875 12.84765625 C49.18668198 22.13600072 51.24674222 32.83049028 51.01171875 45.0859375 C50.01350969 67.06699183 35.4581917 92.85557429 19.53515625 107.63671875 C14.02711522 112.26161396 9.48322341 113.85528142 2.2109375 113.5859375 C-1.25440996 113.04497909 -3.00933802 111.7961607 -5.31640625 109.19140625 C-7.55708763 105.83038418 -7.83869391 103.86733645 -7.30078125 99.890625 C-5.76777615 95.68702768 -2.84476918 92.75300615 0.10473633 89.48510742 C8.78225238 79.78195273 15.34125147 68.4585232 19.68359375 56.19140625 C20.23080078 54.72767578 20.23080078 54.72767578 20.7890625 53.234375 C21.7213132 50.06309424 21.98332605 47.42722763 21.99609375 44.12890625 C22.02123047 42.62650391 22.02123047 42.62650391 22.046875 41.09375 C21.62417867 37.71672451 20.73776182 35.88955835 18.68359375 33.19140625 C10.94223677 27.8669518 -1.95563102 29.69217663 -10.83984375 30.51953125 C-27.154615 33.67249828 -43.08539047 43.49816054 -56.31640625 53.19140625 C-57.21617187 53.84753906 -58.1159375 54.50367188 -59.04296875 55.1796875 C-70.93485331 64.296799 -87.60659964 78.66100925 -90.31640625 94.19140625 C-91.07440163 102.06796695 -90.06445932 108.79783489 -87.31640625 116.19140625 C-86.65640625 116.19140625 -85.99640625 116.19140625 -85.31640625 116.19140625 C-84.40157437 117.26280331 -83.53634424 118.3765692 -82.69140625 119.50390625 C-74.88906629 128.59339394 -63.56242445 134.44546306 -53.48242188 140.65356445 C-9.32430352 167.87027758 -9.32430352 167.87027758 -3.11328125 190.03515625 C-2.09879695 194.56194529 -1.98524643 199.0050025 -2.00390625 203.62890625 C-1.98779297 204.42361328 -1.97167969 205.21832031 -1.95507812 206.03710938 C-1.9407955 223.59046128 -13.03293278 238.69909709 -24.80712891 250.71240234 C-31.35676707 257.23214324 -38.33157272 262.50982231 -46.31640625 267.19140625 C-47.07953125 267.67867188 -47.84265625 268.1659375 -48.62890625 268.66796875 C-61.53296961 276.82019797 -75.46250096 282.73732102 -90.31640625 286.19140625 C-91.36973145 286.43697266 -91.36973145 286.43697266 -92.44433594 286.6875 C-103.04339828 289.02247777 -113.54471468 289.46232019 -124.37890625 289.50390625 C-126.21630371 289.51224487 -126.21630371 289.51224487 -128.09082031 289.52075195 C-135.06900217 289.46496846 -141.54963678 288.91341569 -148.31640625 287.19140625 C-149.38890625 286.91941406 -150.46140625 286.64742187 -151.56640625 286.3671875 C-163.19657564 282.71623944 -172.72119063 276.20387613 -178.85546875 265.5078125 C-182.98739619 256.81691483 -183.8855474 248.34784521 -181.5 238.98828125 C-176.25394051 224.73069798 -164.71504666 216.06263406 -151.37890625 209.81640625 C-145.98643075 207.41260907 -141.87377958 206.0228576 -135.94140625 205.94140625 C-134.81992188 205.915625 -133.6984375 205.88984375 -132.54296875 205.86328125 C-128.95696451 206.22795965 -127.11314039 206.93663521 -124.31640625 209.19140625 C-123.58303055 212.63263068 -123.30291381 213.9850847 -124.31640625 217.19140625 C-127.36099737 220.97553527 -131.96165515 223.01119504 -136.1640625 225.28125 C-147.45642957 230.83018185 -147.45642957 230.83018185 -155.31640625 240.19140625 C-156.23461007 244.79655156 -156.12213637 248.48637735 -154.10546875 252.75390625 C-150.17034971 258.11529115 -144.66979575 260.73104082 -138.31640625 262.19140625 C-109.83298697 265.32262025 -79.39175656 259.48897078 -55.91796875 242.31640625 C-47.90668478 235.77265478 -40.35781978 229.40617535 -35.31640625 220.19140625 C-34.90648437 219.52109375 -34.4965625 218.85078125 -34.07421875 218.16015625 C-30.41064973 211.38887007 -30.19201869 203.70661425 -31.31640625 196.19140625 C-39.05175363 182.42282497 -53.59879353 174.4497023 -66.796875 166.6796875 C-70.92986223 164.23834155 -75.01137589 161.7147272 -79.08984375 159.18359375 C-81.10391627 157.94003808 -83.1284472 156.71308076 -85.16796875 155.51171875 C-100.13500081 146.49699339 -115.13218087 132.67128727 -119.8046875 115.3046875 C-122.92882387 96.2975372 -118.15675656 79.77981205 -107.1328125 64.08203125 C-89.27574168 39.83569977 -64.84319064 19.31118779 -36.18359375 9.26171875 C-33.25858918 8.23426791 -33.25858918 8.23426791 -30.40625 6.69140625 C-20.97729777 2.11401351 -10.34912778 0.59729948 0 0 Z " fill="#0D0D0E" transform="translate(280.31640625,240.80859375)"/>
<path d="M0 0 C1.485 0.495 1.485 0.495 3 1 C11.25884786 21.64711966 7.09551646 53.9570964 2 75 C1.81276367 75.77327637 1.62552734 76.54655273 1.43261719 77.34326172 C-2.38544192 92.5132876 -8.4514671 114.44785667 -20.125 125.375 C-23 127 -23 127 -25.6875 127.125 C-28.81547861 125.60328067 -29.49959805 124.12759843 -31 121 C-34.85053546 93.08361793 -20.79328954 62.05489421 -11.99780273 36.05664062 C-8.98455281 27.1232699 -6.18524749 18.16369748 -3.74975586 9.05200195 C-2.81873226 5.60811853 -1.99685247 2.9952787 0 0 Z " fill="#F4F4F4" transform="translate(550,444)"/>
<path d="M0 0 C0.78375 0.04125 1.5675 0.0825 2.375 0.125 C2.62233567 6.4506097 2.11318786 11.28746459 -0.125 17.1875 C-0.52658325 18.27985962 -0.52658325 18.27985962 -0.9362793 19.39428711 C-3.91941015 27.27080672 -7.64580553 34.71266649 -11.625 42.125 C-11.95838379 42.75696289 -12.29176758 43.38892578 -12.63525391 44.04003906 C-22.34698529 62.37345747 -34.55066941 79.29411493 -46.625 96.125 C-47.98338649 92.04984052 -46.51557663 89.49799006 -45 85.6875 C-44.75121094 85.03845703 -44.50242187 84.38941406 -44.24609375 83.72070312 C-43.39221262 81.5137815 -42.51151481 79.31901784 -41.625 77.125 C-41.25882568 76.20952393 -40.89265137 75.29404785 -40.51538086 74.35083008 C-37.49899263 66.94112545 -34.06996866 59.81239295 -30.4375 52.6875 C-26.30068806 44.50880013 -22.25768288 36.30224201 -18.375 28 C-15.33103308 21.52315941 -12.13099245 15.17748412 -8.625 8.9375 C-8.25084961 8.27153809 -7.87669922 7.60557617 -7.49121094 6.91943359 C-3.6219745 0.17247498 -3.6219745 0.17247498 0 0 Z " fill="#F0F0F0" transform="translate(617.625,301.875)"/>
<path d="M0 0 C3.40589091 1.62249134 5.36834901 3.9951007 7.375 7.1875 C9.02136433 14.59613949 8.64346347 20.56832574 4.55078125 27.08203125 C1.21603353 31.20636659 -2.26708487 32.75678384 -7.5625 33.5 C-11.69957157 32.89824414 -13.75286656 31.59770675 -17 29 C-17.78375 28.484375 -18.5675 27.96875 -19.375 27.4375 C-22.13512593 23.2973111 -21.56640464 18.81102734 -21 14 C-18.12373036 2.88808059 -10.9721513 -1.53610118 0 0 Z " fill="#0F1010" transform="translate(525,308)"/>
<path d="M0 0 C4.55439363 4.55439363 5.36988264 10.72958537 5.41601562 16.90307617 C5.40248047 17.69818604 5.38894531 18.4932959 5.375 19.3125 C5.36919922 20.14048096 5.36339844 20.96846191 5.35742188 21.8215332 C5.22286839 28.19725038 4.26286192 34.00610979 2 40 C1.34 40 0.68 40 0 40 C-1 33.25 -1 33.25 -1 31 C-1.99 31 -2.98 31 -4 31 C-4.02912348 27.27084983 -4.04684037 23.5417291 -4.0625 19.8125 C-4.07087891 18.75740234 -4.07925781 17.70230469 -4.08789062 16.61523438 C-4.09111328 15.59365234 -4.09433594 14.57207031 -4.09765625 13.51953125 C-4.10289307 12.58214111 -4.10812988 11.64475098 -4.11352539 10.67895508 C-3.8288606 3.9614783 -3.8288606 3.9614783 -1.4375 1.1875 C-0.963125 0.795625 -0.48875 0.40375 0 0 Z " fill="#161516" transform="translate(326,262)"/>
<path d="M0 0 C1.5778125 0.00580078 1.5778125 0.00580078 3.1875 0.01171875 C6 0.3125 6 0.3125 9 2.3125 C9 3.6325 9 4.9525 9 6.3125 C7.08574219 6.29509766 7.08574219 6.29509766 5.1328125 6.27734375 C3.46354313 6.26796583 1.79427217 6.25886563 0.125 6.25 C-0.71675781 6.24162109 -1.55851562 6.23324219 -2.42578125 6.22460938 C-3.23144531 6.22138672 -4.03710938 6.21816406 -4.8671875 6.21484375 C-5.61081543 6.20960693 -6.35444336 6.20437012 -7.12060547 6.19897461 C-9.09132568 6.19463364 -9.09132568 6.19463364 -11 7.3125 C-8.41375644 1.54318745 -6.46171488 -0.10294399 0 0 Z M-13 7.3125 C-12.34 7.6425 -11.68 7.9725 -11 8.3125 C-11.99 9.6325 -12.98 10.9525 -14 12.3125 C-14.33 11.3225 -14.66 10.3325 -15 9.3125 C-14.34 8.6525 -13.68 7.9925 -13 7.3125 Z " fill="#060606" transform="translate(402,364.6875)"/>
<path d="M0 0 C0.99 0 1.98 0 3 0 C4.58043844 9.48263064 4.23414225 18.60832797 2 28 C1.34 28.33 0.68 28.66 0 29 C0 19.43 0 9.86 0 0 Z " fill="#050505" transform="translate(381,429)"/>
<path d="M0 0 C0.8531488 2.38881665 1.12563748 3.62308755 0.3125 6.0625 C-1 8 -1 8 -3.0625 9.3125 C-5.93053683 11.81046756 -5.72351483 14.33657155 -6 18 C-7.093125 18.0825 -8.18625 18.165 -9.3125 18.25 C-13.01967057 18.62493721 -13.01967057 18.62493721 -14.8125 21 C-15.4003125 21.99 -15.4003125 21.99 -16 23 C-16.66 23.33 -17.32 23.66 -18 24 C-18.33 23.01 -18.66 22.02 -19 21 C-18.52691406 20.62230469 -18.05382812 20.24460937 -17.56640625 19.85546875 C-10.6906073 14.13233785 -4.9614247 7.44213705 0 0 Z " fill="#EAEAEA" transform="translate(552,567)"/>
<path d="M0 0 C0.66 0.99 1.32 1.98 2 3 C0.04761147 5.00612399 -1.91137822 7.00492433 -3.875 9 C-4.43058594 9.57234375 -4.98617188 10.1446875 -5.55859375 10.734375 C-7.00134404 12.19450782 -8.4974374 13.60149298 -10 15 C-10.66 15 -11.32 15 -12 15 C-12.309375 15.61875 -12.61875 16.2375 -12.9375 16.875 C-13.625 18.25 -14.3125 19.625 -15 21 C-16.65 21 -18.3 21 -20 21 C-17.33487216 18.25411071 -14.66819374 15.71209519 -11.6875 13.3125 C-7.1054512 9.46721235 -3.60689786 4.74049433 0 0 Z " fill="#DCDCDB" transform="translate(349,468)"/>
<path d="M0 0 C5.94 0 11.88 0 18 0 C18 0.66 18 1.32 18 2 C11.97767819 3.46619907 7.09632423 4.32528788 1 3 C0.67 2.01 0.34 1.02 0 0 Z " fill="#050505" transform="translate(195,517)"/>
<path d="M0 0 C0.99 0 1.98 0 3 0 C2.67 2.64 2.34 5.28 2 8 C2.66 8 3.32 8 4 8 C3.14285714 16.57142857 3.14285714 16.57142857 1 20 C0.11722245 15.48184719 -0.10589503 11.22487306 -0.0625 6.625 C-0.05347656 5.37976563 -0.04445312 4.13453125 -0.03515625 2.8515625 C-0.02355469 1.91054688 -0.01195312 0.96953125 0 0 Z " fill="#040304" transform="translate(186,322)"/>
<path d="M0 0 C1.26457031 -0.01417969 2.52914063 -0.02835938 3.83203125 -0.04296875 C6.93758835 0.17033494 8.60257986 0.54018313 11.1875 2.1875 C1.71708787 2.96868882 -7.33638303 3.35406743 -16.8125 2.1875 C-16.8125 1.8575 -16.8125 1.5275 -16.8125 1.1875 C-11.20292462 0.40019117 -5.66322834 0.05502955 0 0 Z " fill="#424343" transform="translate(284.8125,240.8125)"/>
<path d="M0 0 C0.33 0.66 0.66 1.32 1 2 C0.00390625 4.3828125 0.00390625 4.3828125 -1.4375 7.125 C-1.91058594 8.03507812 -2.38367188 8.94515625 -2.87109375 9.8828125 C-3.24363281 10.58148438 -3.61617187 11.28015625 -4 12 C-4.99 12 -5.98 12 -7 12 C-7.33 12.66 -7.66 13.32 -8 14 C-8.33 13.01 -8.66 12.02 -9 11 C-7.12890625 8.30078125 -7.12890625 8.30078125 -4.5625 5.3125 C-3.71816406 4.31863281 -2.87382813 3.32476562 -2.00390625 2.30078125 C-1.01197266 1.16189453 -1.01197266 1.16189453 0 0 Z " fill="#D8D8D9" transform="translate(520,465)"/>
<path d="M0 0 C1.00109515 3.31070838 1.10356134 6.30084769 1.0625 9.75 C1.05347656 10.73484375 1.04445313 11.7196875 1.03515625 12.734375 C1.02355469 13.48203125 1.01195312 14.2296875 1 15 C-1.0078125 13.78125 -1.0078125 13.78125 -3 12 C-3.2421875 9.84375 -3.2421875 9.84375 -2.875 7.5 C-2.76929688 6.7265625 -2.66359375 5.953125 -2.5546875 5.15625 C-2 3 -2 3 0 0 Z " fill="#060606" transform="translate(975,387)"/>
<path d="M0 0 C0.99 0.33 1.98 0.66 3 1 C4.47694566 4.91390601 5.60226148 7.99434629 4 12 C4 11.01 4 10.02 4 9 C3.34 9 2.68 9 2 9 C1.34 8.01 0.68 7.02 0 6 C-0.99 6.66 -1.98 7.32 -3 8 C-1.125 1.125 -1.125 1.125 0 0 Z " fill="#CECECE" transform="translate(550,444)"/>
<path d="M0 0 C1 4 1 4 0.2890625 6.046875 C-1.13517643 8.20481277 -2.62385331 9.61943603 -4.625 11.25 C-5.25664063 11.77078125 -5.88828125 12.2915625 -6.5390625 12.828125 C-7.02117188 13.21484375 -7.50328125 13.6015625 -8 14 C-8.66 13.67 -9.32 13.34 -10 13 C-5.05 6.565 -5.05 6.565 0 0 Z " fill="#DEDEDE" transform="translate(552,567)"/>
<path d="M0 0 C0.33 1.32 0.66 2.64 1 4 C-3.25566547 5.16063604 -6.6835078 4.76173392 -11 4 C-10.34 3.67 -9.68 3.34 -9 3 C-9 2.34 -9 1.68 -9 1 C-5.846632 0.29925156 -3.27275026 0 0 0 Z " fill="#030203" transform="translate(215,493)"/>
<path d="M0 0 C0.33 0.66 0.66 1.32 1 2 C1.99 2.33 2.98 2.66 4 3 C1.69 6.3 -0.62 9.6 -3 13 C-4.23593891 9.29218328 -3.5678132 8.32489747 -2.0625 4.8125 C-1.68222656 3.91144531 -1.30195312 3.01039063 -0.91015625 2.08203125 C-0.60980469 1.39496094 -0.30945313 0.70789063 0 0 Z " fill="#D2D2D2" transform="translate(574,385)"/>
<path d="M0 0 C1.49080078 0.02707031 1.49080078 0.02707031 3.01171875 0.0546875 C3.77097656 0.07789063 4.53023438 0.10109375 5.3125 0.125 C5.3125 0.455 5.3125 0.785 5.3125 1.125 C4.64863281 1.12757813 3.98476563 1.13015625 3.30078125 1.1328125 C-1.83561568 1.23068968 -1.83561568 1.23068968 -6.32421875 3.38671875 C-7.53277261 4.90027043 -8.61312131 6.51343196 -9.6875 8.125 C-11.00293863 9.47599103 -12.32925118 10.81705669 -13.6875 12.125 C-14.3475 11.795 -15.0075 11.465 -15.6875 11.125 C-14.5890258 9.66237408 -13.4834964 8.20504497 -12.375 6.75 C-11.76011719 5.93789063 -11.14523437 5.12578125 -10.51171875 4.2890625 C-7.2020698 0.36284083 -4.93870916 -0.11620492 0 0 Z " fill="#282828" transform="translate(400.6875,363.875)"/>
<path d="M0 0 C0.33 1.32 0.66 2.64 1 4 C-3.95 5.485 -3.95 5.485 -9 7 C-9 6.01 -9 5.02 -9 4 C-8.34 3.67 -7.68 3.34 -7 3 C-7 2.34 -7 1.68 -7 1 C-4 0 -4 0 0 0 Z " fill="#E1E2E1" transform="translate(810,246)"/>
<path d="M0 0 C1.67542976 0.28604898 3.34385343 0.61781233 5 1 C4.67 2.98 4.34 4.96 4 7 C3.01 7.33 2.02 7.66 1 8 C0.67 8.66 0.34 9.32 0 10 C-0.19412181 8.52168779 -0.38012131 7.04230684 -0.5625 5.5625 C-0.66691406 4.73878906 -0.77132813 3.91507812 -0.87890625 3.06640625 C-0.91886719 2.38449219 -0.95882813 1.70257813 -1 1 C-0.67 0.67 -0.34 0.34 0 0 Z " fill="#050505" transform="translate(323,408)"/>
<path d="M0 0 C0.33 0.66 0.66 1.32 1 2 C-0.07507629 3.29854721 -1.16043736 4.58858361 -2.25 5.875 C-2.85328125 6.59429687 -3.4565625 7.31359375 -4.078125 8.0546875 C-5.97087634 9.97052118 -7.53657727 10.96449045 -10 12 C-10 12.66 -10 13.32 -10 14 C-10.66 13.67 -11.32 13.34 -12 13 C-8.13635705 8.51282966 -4.25209792 4.12324647 0 0 Z " fill="#D0D0D0" transform="translate(785,295)"/>
<path d="M0 0 C1.046875 1.83203125 1.046875 1.83203125 2 4 C1.25 6.6875 1.25 6.6875 0 9 C-0.99 9.495 -0.99 9.495 -2 10 C-3.0409066 11.64142963 -4.04504326 13.30712215 -5 15 C-5.33 14.34 -5.66 13.68 -6 13 C-5.10333658 10.75689987 -4.10853317 8.55245679 -3.0625 6.375 C-2.49660156 5.18648438 -1.93070313 3.99796875 -1.34765625 2.7734375 C-0.90292969 1.85820312 -0.45820312 0.94296875 0 0 Z " fill="#2B2B2C" transform="translate(1000,405)"/>
<path d="M0 0 C0.66 0.33 1.32 0.66 2 1 C-6.261959 10.59453303 -6.261959 10.59453303 -11 14 C-11.66 13.67 -12.32 13.34 -13 13 C-8.71 8.71 -4.42 4.42 0 0 Z " fill="#1F2020" transform="translate(876,367)"/>
<path d="M0 0 C0.33 0 0.66 0 1 0 C1 3.96 1 7.92 1 12 C0.67 12 0.34 12 0 12 C-0.33 10.02 -0.66 8.04 -1 6 C-2.485 8.475 -2.485 8.475 -4 11 C-4.99 10.67 -5.98 10.34 -7 10 C-5.85821872 8.33055479 -4.71147095 6.6645052 -3.5625 5 C-2.92441406 4.071875 -2.28632813 3.14375 -1.62890625 2.1875 C-1.09136719 1.465625 -0.55382812 0.74375 0 0 Z " fill="#CFCFCF" transform="translate(359,454)"/>
<path d="M0 0 C0.91007813 0.00902344 1.82015625 0.01804687 2.7578125 0.02734375 C3.45648438 0.03894531 4.15515625 0.05054688 4.875 0.0625 C2.6994694 2.2380306 1.31526108 2.78129553 -1.5625 3.75 C-2.73619141 4.15798828 -2.73619141 4.15798828 -3.93359375 4.57421875 C-6.125 5.0625 -6.125 5.0625 -9.125 4.0625 C-8.465 4.0625 -7.805 4.0625 -7.125 4.0625 C-7.125 3.0725 -7.125 2.0825 -7.125 1.0625 C-4.60024538 -0.19987731 -2.81299534 -0.03606404 0 0 Z " fill="#252424" transform="translate(204.125,519.9375)"/>
<path d="M0 0 C0.99 0.33 1.98 0.66 3 1 C2.67 3.64 2.34 6.28 2 9 C1.01 9.33 0.02 9.66 -1 10 C-1.02689216 8.52093108 -1.04634621 7.04172517 -1.0625 5.5625 C-1.07410156 4.73878906 -1.08570313 3.91507812 -1.09765625 3.06640625 C-1 1 -1 1 0 0 Z " fill="#040404" transform="translate(860,322)"/>
<path d="M0 0 C2 2 2 2 2 6 C1.2575 5.95875 0.515 5.9175 -0.25 5.875 C-3.08758952 6.00398134 -4.58773938 6.57051222 -7 8 C-5.61918777 3.8575633 -3.40174442 2.67796901 0 0 Z " fill="#040505" transform="translate(896,433)"/>
<path d="M0 0 C1 2 1 2 0.9375 3.8125 C-0.49509186 7.15521434 -3.1928703 8.77768899 -6 11 C-6.33 11.66 -6.66 12.32 -7 13 C-7.66 12.67 -8.32 12.34 -9 12 C-6.03 8.04 -3.06 4.08 0 0 Z " fill="#2C2D2C" transform="translate(528,428)"/>
<path d="M0 0 C1.1875 1.5625 1.1875 1.5625 2 4 C0.8125 7.6875 0.8125 7.6875 -1 11 C-1.99 11.33 -2.98 11.66 -4 12 C-3.33989524 9.15449988 -2.48275034 6.47674001 -1.4375 3.75 C-1.16808594 3.04359375 -0.89867187 2.3371875 -0.62109375 1.609375 C-0.41613281 1.07828125 -0.21117187 0.5471875 0 0 Z " fill="#212123" transform="translate(1097,310)"/>
<path d="M0 0 C0.556875 0.226875 1.11375 0.45375 1.6875 0.6875 C-0.66527269 3.41176311 -2.93746331 4.5016763 -6.3125 5.6875 C-6.6425 4.6975 -6.9725 3.7075 -7.3125 2.6875 C-2.88173077 -0.38942308 -2.88173077 -0.38942308 0 0 Z " fill="#E4E4E5" transform="translate(226.3125,256.3125)"/>
<path d="M0 0 C2.97 0 5.94 0 9 0 C9 0.99 9 1.98 9 3 C4.94568308 4.15837626 2.78187881 3.83691257 -1 2 C-0.67 1.34 -0.34 0.68 0 0 Z " fill="#060606" transform="translate(221,507)"/>
<path d="M0 0 C0.66 0.99 1.32 1.98 2 3 C1.67 3.99 1.34 4.98 1 6 C-1.31 6 -3.62 6 -6 6 C-4 4 -2 2 0 0 Z " fill="#030303" transform="translate(799,472)"/>
<path d="M0 0 C1.9375 0.875 1.9375 0.875 3.9375 3.875 C0.5625 4.5 0.5625 4.5 -3.0625 4.875 C-3.7225 4.215 -4.3825 3.555 -5.0625 2.875 C-2.63475434 -0.15968208 -2.63475434 -0.15968208 0 0 Z " fill="#010101" transform="translate(126.0625,454.125)"/>
<path d="M0 0 C0.66 0.33 1.32 0.66 2 1 C1.2884375 1.7734375 1.2884375 1.7734375 0.5625 2.5625 C-1.42809407 5.66782675 -1.65060818 8.36632504 -2 12 C-2.66 12 -3.32 12 -4 12 C-4.33292585 7.75519536 -4.43885872 5.64457375 -2 2.0625 C-1.34 1.381875 -0.68 0.70125 0 0 Z " fill="#292929" transform="translate(1047,338)"/>
<path d="M0 0 C0.66 0.33 1.32 0.66 2 1 C0.68 4.63 -0.64 8.26 -2 12 C-2.33 12 -2.66 12 -3 12 C-3 3.625 -3 3.625 0 0 Z " fill="#D3D4D3" transform="translate(164,318)"/>
<path d="M0 0 C0.66 0.33 1.32 0.66 2 1 C1.34 2.65 0.68 4.3 0 6 C-0.66 6 -1.32 6 -2 6 C-2.28875 6.639375 -2.5775 7.27875 -2.875 7.9375 C-4 10 -4 10 -6 11 C-4.54955729 6.89041233 -2.48889248 3.56741255 0 0 Z " fill="#292929" transform="translate(588,298)"/>
<path d="M0 0 C0.66 0.33 1.32 0.66 2 1 C0.92892883 1.86949317 -0.15745944 2.72014205 -1.25 3.5625 C-1.85328125 4.03816406 -2.4565625 4.51382813 -3.078125 5.00390625 C-5 6 -5 6 -7.234375 5.65234375 C-7.81703125 5.43707031 -8.3996875 5.22179687 -9 5 C-3.375 1.125 -3.375 1.125 0 0 Z " fill="#DCDCDC" transform="translate(776,512)"/>
<path d="M0 0 C0.66 0 1.32 0 2 0 C2 3.63 2 7.26 2 11 C0 8 0 8 0 5 C-0.66 4.67 -1.32 4.34 -2 4 C-1.34 2.68 -0.68 1.36 0 0 Z " fill="#39393A" transform="translate(1069,451)"/>
<path d="M0 0 C0.66 0.33 1.32 0.66 2 1 C-0.97 3.97 -3.94 6.94 -7 10 C-7.66 9.67 -8.32 9.34 -9 9 C-6.21000549 5.51250686 -3.74764169 2.49842779 0 0 Z " fill="#262627" transform="translate(333,358)"/>
<path d="M0 0 C0.33 0.99 0.66 1.98 1 3 C-1.64 5.64 -4.28 8.28 -7 11 C-7.66 10.67 -8.32 10.34 -9 10 C-6.03 6.7 -3.06 3.4 0 0 Z " fill="#232324" transform="translate(1107,441)"/>
<path d="M0 0 C0 1.98 0 3.96 0 6 C-0.99 6.495 -0.99 6.495 -2 7 C-2 6.34 -2 5.68 -2 5 C-3.98 5.99 -3.98 5.99 -6 7 C-6 6.01 -6 5.02 -6 4 C-1.54285714 0 -1.54285714 0 0 0 Z " fill="#040403" transform="translate(732,316)"/>
<path d="M0 0 C1.5625 1.5625 1.5625 1.5625 3 4 C2.6875 7.75 2.6875 7.75 2 11 C1.34 9.68 0.68 8.36 0 7 C-0.66 7 -1.32 7 -2 7 C-1.34 4.69 -0.68 2.38 0 0 Z " fill="#C8C8C8" transform="translate(625,343)"/>
<path d="M0 0 C1 3 1 3 -0.1875 5.5 C-1.94150569 7.9193182 -3.51794573 9.37382651 -6 11 C-4.54955729 6.89041233 -2.48889248 3.56741255 0 0 Z " fill="#1E1E1E" transform="translate(725,321)"/>
<path d="M0 0 C2 3 2 3 1.625 5.1875 C1.41875 5.785625 1.2125 6.38375 1 7 C-0.65 6.67 -2.3 6.34 -4 6 C-2.68 4.02 -1.36 2.04 0 0 Z " fill="#030303" transform="translate(116,462)"/>
<path d="M0 0 C2.31 0.33 4.62 0.66 7 1 C4.4345406 3.5654594 2.52313332 3.54046087 -1 4 C-0.67 2.68 -0.34 1.36 0 0 Z " fill="#1B1B1C" transform="translate(602,441)"/>
<path d="M0 0 C0.99 0.33 1.98 0.66 3 1 C2.6875 2.875 2.6875 2.875 2 5 C1.01 5.66 0.02 6.32 -1 7 C-1.04254356 5.00045254 -1.04080783 2.99958364 -1 1 C-0.67 0.67 -0.34 0.34 0 0 Z " fill="#131313" transform="translate(577,409)"/>
<path d="M0 0 C1.32 0.66 2.64 1.32 4 2 C2.35 3.32 0.7 4.64 -1 6 C-1.625 4.125 -1.625 4.125 -2 2 C-1.34 1.34 -0.68 0.68 0 0 Z " fill="#EFF0F0" transform="translate(746,289)"/>
<path d="M0 0 C0.33 0.66 0.66 1.32 1 2 C0.06553465 4.03144641 -0.93224776 6.03533587 -2 8 C-3.0625 6.125 -3.0625 6.125 -4 4 C-3.67 3.34 -3.34 2.68 -3 2 C-2.34 2.33 -1.68 2.66 -1 3 C-0.67 2.01 -0.34 1.02 0 0 Z " fill="#484948" transform="translate(515,384)"/>
<path d="M0 0 C3.63 0 7.26 0 11 0 C11 0.99 11 1.98 11 3 C7.37 2.34 3.74 1.68 0 1 C0 0.67 0 0.34 0 0 Z " fill="#C0C0C0" transform="translate(337,356)"/>
</svg>